<svg width="360" height="330" viewBox="0 0 360 330" fill="none" xmlns="http://www.w3.org/2000/svg">
<path d="M88.645 -138.581C86.7541 -138.506 84.8806 -138.127 83.062 -137.453C17.5774 -114.184 -16.9477 -42.9544 -7.43834 10.0865C-0.468271 50.9162 30.9995 73.4469 40.0855 79.3699C40.0855 79.3699 40.0853 79.3699 40.5171 79.3565L253.675 172.022C263.641 176.27 274.006 178.286 284.371 177.991C298.625 177.863 312.555 172.795 324.882 163.253C329.779 159.344 334.331 154.68 338.453 149.349C353.08 130.59 362.384 105.228 364.752 77.6579L380.268 -49.182C380.394 -50.1964 380.768 -51.114 381.329 -51.7824C381.89 -52.4508 382.604 -52.8298 383.352 -52.857C384.193 -52.8847 385.016 -52.4655 385.651 -51.6859C386.287 -50.9062 386.686 -49.8257 386.766 -48.6675L404.471 162.814C407.63 182.855 414.164 201.678 423.539 217.748C432.914 233.818 444.865 246.68 458.418 255.284L623.737 324.257C634.181 328.759 645.164 330.088 655.923 328.151C666.011 326.96 675.448 321.121 682.722 311.571C708.899 274.963 695.882 178.48 638.452 76.8104L502.113 -139.107C499.796 -142.775 496.924 -145.698 493.708 -147.663C490.492 -149.628 487.012 -150.585 483.524 -150.463L88.645 -138.581Z" fill="#2E75C0" fill-opacity="0.19"/>
</svg>
