<svg width="100" height="353" viewBox="0 0 100 353" fill="none" xmlns="http://www.w3.org/2000/svg">
<path d="M-613.285 145.439C-615.042 146.143 -616.68 147.128 -618.168 148.373C-672.072 192.236 -680.737 270.916 -654.006 317.706C-633.759 353.84 -596.562 364.526 -586.016 367.063C-586.016 367.063 -586.016 367.063 -585.614 366.905L-353.729 382.799C-342.916 383.462 -332.474 381.889 -322.808 378.139C-309.42 373.242 -297.993 363.8 -289.576 350.679C-286.271 345.356 -283.545 339.437 -281.448 333.032C-273.951 310.458 -273.682 283.444 -280.687 256.674L-308.565 131.966C-308.786 130.968 -308.741 129.978 -308.436 129.16C-308.132 128.343 -307.586 127.747 -306.891 127.47C-306.107 127.163 -305.191 127.282 -304.331 127.803C-303.472 128.325 -302.734 129.209 -302.27 130.274L-214.734 323.601C-205.043 341.425 -192.58 356.971 -178.363 368.971C-164.145 380.971 -148.576 389.086 -132.924 392.652L45.9495 402.251C57.2981 402.993 68.0918 400.565 77.5804 395.136C86.686 390.633 93.6213 381.97 97.2745 370.535C109.674 327.273 65.0839 240.727 -23.0902 164.175L-223.89 6.41518C-227.302 3.73556 -230.987 1.94347 -234.676 1.16982C-238.365 0.396163 -241.964 0.660498 -245.209 1.94376L-613.285 145.439Z" fill="#FBE6D5"/>
</svg>
