<svg width="196" height="135" viewBox="0 0 196 135" fill="none" xmlns="http://www.w3.org/2000/svg">
<path d="M99.3511 44.4497H96.2834V113.131H99.3511V44.4497Z" fill="#2E75C0"/>
<path d="M92.5911 101.01V113.697C92.5911 116.483 95.0106 118.742 97.9952 118.742C100.98 118.742 103.399 116.483 103.399 113.697V101.01C103.399 98.2237 100.98 95.965 97.9952 95.965C95.0106 95.965 92.5911 98.2237 92.5911 101.01Z" fill="#2E75C0"/>
<path d="M92.5911 69.5578V82.2451C92.5911 85.0313 95.0106 87.29 97.9952 87.29C100.98 87.29 103.399 85.0313 103.399 82.2451V69.5578C103.399 66.7715 100.98 64.5128 97.9952 64.5128C95.0106 64.5128 92.5911 66.7715 92.5911 69.5578Z" fill="#2E75C0"/>
<path d="M92.5911 38.1061V50.7934C92.5911 53.5797 95.0106 55.8384 97.9952 55.8384C100.98 55.8384 103.399 53.5797 103.399 50.7934V38.1061C103.399 35.3198 100.98 33.0611 97.9952 33.0611C95.0106 33.0611 92.5911 35.3198 92.5911 38.1061Z" fill="#2E75C0"/>
<path d="M72.473 114.579C72.4766 114.944 72.4347 115.307 72.3481 115.662C69.1556 128.416 58.6684 135.492 50.696 133.977C44.5606 132.878 41.0648 126.95 40.1196 125.235V125.152L25.2627 84.7093C24.5675 82.8176 24.2119 80.8317 24.2104 78.8318C24.1468 74.9262 25.603 71.1316 28.309 68.1523C31.015 65.173 34.7868 63.2114 38.9246 62.6313L57.8123 58.8851C57.9649 58.8577 58.1023 58.7808 58.2002 58.6681C58.298 58.5554 58.3501 58.4141 58.3473 58.269C58.3522 58.1084 58.2897 57.9523 58.1731 57.8341C58.0565 57.7159 57.895 57.645 57.7231 57.6363L26.0118 55.4885C23.0015 54.9995 20.1576 53.8533 17.7121 52.1432C15.2666 50.4332 13.2887 48.2077 11.9397 45.6483L0.828213 14.263C0.109722 12.2773 -0.145652 10.1712 0.0791578 8.08582C0.227789 6.13915 1.05462 4.29134 2.43344 2.8244C7.78406 -2.43701 22.2842 -0.505596 37.7296 9.95063L70.6538 34.9257C71.2099 35.3525 71.6581 35.8887 71.9665 36.496C72.2748 37.1033 72.4356 37.7668 72.4373 38.4388L72.473 114.579Z" fill="#2E75C0"/>
<path d="M123.518 114.579C123.52 114.944 123.568 115.307 123.661 115.662C126.835 128.416 137.322 135.492 145.295 133.977C151.43 132.878 154.944 126.95 155.871 125.235C155.871 125.235 155.871 125.235 155.871 125.152L170.71 84.6427C171.391 82.7482 171.741 80.7636 171.745 78.7652C171.792 76.0185 171.099 73.3047 169.729 70.8731C169.168 69.9064 168.492 69.0016 167.714 68.1758C164.978 65.246 161.23 63.3022 157.12 62.6813L138.232 58.935C138.081 58.9047 137.946 58.827 137.848 58.715C137.751 58.6029 137.698 58.4632 137.697 58.319C137.697 58.1568 137.763 58.0007 137.883 57.883C138.002 57.7652 138.166 57.6948 138.339 57.6863L170.033 55.5384C173.043 55.0495 175.887 53.9032 178.332 52.1932C180.778 50.4831 182.756 48.2576 184.105 45.6982L195.18 14.263C195.902 12.2779 196.151 10.17 195.912 8.08582C195.78 6.13536 194.951 4.28255 193.557 2.8244C188.207 -2.43701 173.724 -0.505596 158.261 9.95063L125.355 34.9257C124.796 35.3501 124.346 35.8859 124.037 36.4937C123.728 37.1016 123.569 37.7662 123.571 38.4388L123.518 114.579Z" fill="#2E75C0"/>
</svg>
