<svg width="285" height="77" viewBox="0 0 285 77" fill="none" xmlns="http://www.w3.org/2000/svg">
<path d="M53 26H51V65H53V26Z" fill="#F07818"/>
<path d="M73.1971 67.3513C72.9571 67.5993 72.6691 67.7958 72.3506 67.9287C72.0321 68.0617 71.6899 68.1283 71.3448 68.1245C71.0045 68.1309 70.6666 68.0653 70.3534 67.9321C70.0402 67.7988 69.7587 67.6009 69.5274 67.3513C69.2869 67.1072 69.0973 66.8178 68.9698 66.4998C68.8423 66.1817 68.7794 65.8415 68.7847 65.4989V21.7512C68.7774 21.3903 68.8425 21.0315 68.976 20.6961C69.1096 20.3607 69.3089 20.0555 69.5623 19.7984C69.8069 19.536 70.1042 19.3284 70.4348 19.1891C70.7653 19.0498 71.1216 18.982 71.4802 18.9902C72.3247 18.9571 73.1608 19.1682 73.8884 19.5983C74.6159 20.0283 75.2041 20.659 75.5823 21.4148L90.3266 48.5354C90.3266 48.5835 90.3703 48.6053 90.4576 48.6053C90.4672 48.6068 90.4769 48.606 90.4861 48.603C90.4952 48.6 90.5035 48.595 90.5103 48.5881C90.5172 48.5813 90.5223 48.573 90.5253 48.5638C90.5283 48.5547 90.529 48.5449 90.5275 48.5354L105.267 21.4803C105.638 20.6988 106.233 20.0451 106.975 19.6018C107.718 19.1584 108.576 18.9456 109.439 18.9902C110.185 19.0025 110.897 19.3043 111.424 19.8317C111.952 20.3591 112.254 21.0709 112.266 21.8167V65.4334C112.269 65.783 112.202 66.1296 112.07 66.453C111.937 66.7764 111.741 67.0698 111.493 67.3163C111.243 67.5723 110.945 67.7757 110.616 67.9147C110.286 68.0536 109.932 68.1252 109.575 68.1252C109.217 68.1252 108.864 68.0536 108.534 67.9147C108.205 67.7757 107.907 67.5723 107.657 67.3163C107.409 67.0698 107.213 66.7764 107.08 66.453C106.947 66.1296 106.881 65.783 106.884 65.4334V28.0726C106.885 28.0634 106.883 28.0542 106.88 28.0456C106.877 28.037 106.871 28.0293 106.865 28.023C106.858 28.0167 106.85 28.012 106.841 28.0092C106.832 28.0065 106.823 28.0057 106.814 28.0071C106.805 28.0056 106.796 28.0062 106.787 28.009C106.778 28.0117 106.771 28.0165 106.764 28.0229C106.758 28.0293 106.753 28.0372 106.75 28.0458C106.747 28.0545 106.747 28.0637 106.748 28.0726L94.1623 51.2921C93.8068 51.9692 93.2729 52.5363 92.6184 52.9319C91.9639 53.3275 91.2137 53.5366 90.4489 53.5366C89.6841 53.5366 88.9339 53.3275 88.2794 52.9319C87.6249 52.5363 87.091 51.9692 86.7355 51.2921L74.0664 28.0726C74.0664 28.0552 74.0595 28.0386 74.0472 28.0263C74.0349 28.014 74.0183 28.0071 74.0009 28.0071C73.9835 28.0071 73.9668 28.014 73.9545 28.0263C73.9423 28.0386 73.9353 28.0552 73.9353 28.0726V65.4946C73.944 65.8379 73.8831 66.1794 73.7562 66.4985C73.6293 66.8176 73.4391 67.1077 73.1971 67.3513Z" fill="#008BA3"/>
<path d="M152.716 64.3895C149.803 67.3281 145.58 68.7975 140.046 68.7975C134.513 68.7975 130.29 67.3281 127.377 64.3895C124.465 61.4479 123.009 57.0793 123.009 51.2835V21.7514C123.003 21.3879 123.071 21.0271 123.21 20.6913C123.349 20.3554 123.556 20.0516 123.817 19.7986C124.059 19.5427 124.351 19.339 124.675 19.2C124.999 19.0611 125.347 18.9897 125.7 18.9904C126.432 18.9904 127.134 19.2813 127.652 19.7991C128.17 20.3168 128.461 21.0191 128.461 21.7514V51.4976C128.461 55.8662 129.415 59.0699 131.322 61.1086C133.23 63.1473 136.157 64.1783 140.103 64.2016C144.052 64.2016 146.993 63.1706 148.924 61.1086C150.854 59.0466 151.818 55.8429 151.816 51.4976V21.6159C151.805 21.2647 151.868 20.9153 152.002 20.5902C152.135 20.265 152.335 19.9715 152.589 19.7287C153.089 19.2542 153.752 18.9897 154.441 18.9897C155.13 18.9897 155.793 19.2542 156.293 19.7287C156.547 19.9715 156.747 20.265 156.881 20.5902C157.014 20.9153 157.077 21.2647 157.067 21.6159V51.2966C157.084 57.0749 155.634 61.4392 152.716 64.3895Z" fill="#008BA3"/>
<path d="M172.335 67.3906C171.837 67.8668 171.174 68.1325 170.485 68.1325C169.796 68.1325 169.133 67.8668 168.635 67.3906C168.38 67.1493 168.179 66.8566 168.046 66.5321C167.913 66.2075 167.85 65.8584 167.861 65.5077V21.7512C167.861 21.019 168.152 20.3167 168.67 19.7989C169.188 19.2811 169.89 18.9902 170.622 18.9902C171.475 18.9623 172.319 19.1748 173.057 19.6036C173.794 20.0323 174.397 20.66 174.795 21.4148L197.14 59.3086C197.14 59.3523 197.184 59.3741 197.276 59.3741C197.285 59.3757 197.294 59.375 197.302 59.3723C197.311 59.3695 197.319 59.3647 197.325 59.3583C197.332 59.3519 197.337 59.344 197.339 59.3354C197.342 59.3267 197.343 59.3175 197.341 59.3086V21.6158C197.331 21.2646 197.394 20.9151 197.527 20.59C197.66 20.2649 197.861 19.9714 198.114 19.7285C198.614 19.2541 199.277 18.9896 199.967 18.9896C200.656 18.9896 201.319 19.2541 201.819 19.7285C202.073 19.9714 202.273 20.2649 202.406 20.59C202.539 20.9151 202.603 21.2646 202.592 21.6158V65.3636C202.592 66.0958 202.301 66.7981 201.784 67.3158C201.266 67.8336 200.564 68.1246 199.831 68.1246C198.978 68.1525 198.135 67.94 197.397 67.5112C196.659 67.0825 196.057 66.4548 195.659 65.6999L173.314 27.8062C173.314 27.7625 173.27 27.7406 173.178 27.7406C173.169 27.7391 173.16 27.7398 173.151 27.7425C173.143 27.7453 173.135 27.7501 173.128 27.7565C173.122 27.7629 173.117 27.7708 173.114 27.7794C173.112 27.7881 173.111 27.7972 173.113 27.8062V65.499C173.125 65.8514 173.061 66.2023 172.927 66.5285C172.793 66.8546 172.591 67.1485 172.335 67.3906Z" fill="#008BA3"/>
<path d="M243.042 64.3896C240.129 67.3282 235.906 68.7975 230.373 68.7975C224.839 68.7975 220.616 67.3282 217.704 64.3896C214.791 61.448 213.335 57.0793 213.335 51.2836V21.7514C213.328 21.3879 213.396 21.0268 213.535 20.6907C213.674 20.3547 213.881 20.051 214.143 19.7986C214.385 19.5428 214.677 19.3391 215.001 19.2001C215.325 19.0611 215.674 18.9898 216.026 18.9904C216.758 18.9904 217.461 19.2813 217.978 19.7991C218.496 20.3169 218.787 21.0192 218.787 21.7514V51.4976C218.787 55.8663 219.739 59.07 221.644 61.1087C223.549 63.1474 226.477 64.1784 230.429 64.2017C234.379 64.2017 237.317 63.1707 239.245 61.1087C241.173 59.0467 242.139 55.843 242.142 51.4976V21.616C242.131 21.2648 242.195 20.9153 242.328 20.5902C242.461 20.2651 242.661 19.9716 242.915 19.7288C243.414 19.2546 244.077 18.9902 244.765 18.9902C245.454 18.9902 246.116 19.2546 246.615 19.7288C246.87 19.9714 247.071 20.2647 247.205 20.5898C247.338 20.9149 247.403 21.2645 247.393 21.616V51.2967C247.41 57.075 245.96 61.4393 243.042 64.3896Z" fill="#008BA3"/>
<path d="M269.765 45.0362C260.474 41.8995 255.829 36.9862 255.829 30.2963C255.829 26.5247 257.04 23.5861 259.464 21.4804C261.887 19.3747 265.275 18.3204 269.629 18.3175C273.452 18.2809 277.253 18.8955 280.87 20.1348C281.582 20.4019 282.193 20.8845 282.618 21.5153C283.063 22.1558 283.299 22.9193 283.29 23.6996C283.301 23.9652 283.238 24.2285 283.108 24.46C282.977 24.6915 282.785 24.8821 282.552 25.0102C282.322 25.1537 282.06 25.238 281.789 25.2555C281.519 25.273 281.248 25.2233 281.001 25.1107C277.557 23.5357 273.818 22.7093 270.031 22.6861C267.34 22.6861 265.175 23.3152 263.535 24.5734C261.895 25.8316 261.077 27.7378 261.08 30.292C261.08 34.6898 264.019 37.8759 269.896 39.8506C275.462 41.6912 279.366 43.7998 281.608 46.1764C283.851 48.5529 284.972 51.611 284.972 55.3506C284.972 59.7454 283.648 63.0875 281.001 65.3767C278.354 67.6659 274.473 68.8104 269.359 68.8104C265.772 68.8663 262.215 68.1543 258.926 66.7222C257.354 66.0057 256.569 64.7505 256.572 62.9564C256.557 62.6944 256.619 62.4338 256.75 62.2064C256.881 61.9791 257.076 61.7949 257.31 61.6764C257.534 61.5434 257.79 61.4732 258.05 61.4732C258.311 61.4732 258.567 61.5434 258.791 61.6764C261.887 63.4355 265.396 64.3401 268.957 64.2976C276.043 64.2976 279.587 61.3138 279.59 55.3463C279.658 53.1032 278.835 50.9245 277.301 49.2869C275.778 47.6676 273.266 46.2507 269.765 45.0362Z" fill="#008BA3"/>
<path d="M50 57.8783V65.1217C50 66.7114 51.1184 68 52.4981 68H52.5019C53.8816 68 55 66.7114 55 65.1217V57.8783C55 56.2886 53.8816 55 52.5019 55H52.4981C51.1184 55 50 56.2886 50 57.8783Z" fill="#008BA3"/>
<path d="M50 39.8783V47.1217C50 48.7114 51.1184 50 52.4981 50H52.5019C53.8816 50 55 48.7114 55 47.1217V39.8783C55 38.2886 53.8816 37 52.5019 37H52.4981C51.1184 37 50 38.2886 50 39.8783Z" fill="#008BA3"/>
<path d="M50 21.8783V29.1217C50 30.7114 51.1184 32 52.4981 32H52.5019C53.8816 32 55 30.7114 55 29.1217V21.8783C55 20.2886 53.8816 19 52.5019 19H52.4981C51.1184 19 50 20.2886 50 21.8783Z" fill="#008BA3"/>
<path d="M38.9956 65.7394C38.9957 65.945 38.9736 66.15 38.9297 66.351C37.2115 73.6729 31.5648 77.7095 27.2715 76.8969C23.9714 76.2635 22.0818 72.8647 21.5589 71.8774C21.5581 71.8628 21.5581 71.8482 21.5589 71.8337L13.5743 48.6055C13.2014 47.5212 13.0113 46.3832 13.0118 45.2373C12.9919 43.6365 13.3805 42.0568 14.1412 40.6458C14.4487 40.0909 14.8139 39.5696 15.231 39.0905C16.7099 37.4134 18.7295 36.2999 20.9436 35.9408L31.1122 33.7957C31.1932 33.7778 31.2656 33.733 31.3175 33.6687C31.3694 33.6044 31.3978 33.5243 31.3978 33.4419C31.3971 33.3511 31.3626 33.2637 31.3009 33.1968C31.2392 33.1298 31.1548 33.0879 31.0638 33.0793L13.9918 31.8473H13.9522C12.3327 31.5631 10.8031 30.9041 9.48701 29.9236C8.17097 28.9431 7.10539 27.6686 6.37637 26.203C6.37455 26.187 6.37455 26.1709 6.37637 26.1549L0.443999 8.1648C0.0525869 7.02991 -0.0824563 5.82323 0.048497 4.63057C0.121242 3.51117 0.566476 2.44761 1.31407 1.60744C4.17919 -1.41131 11.9967 -0.249222 20.3152 5.69652L38.0333 20.0301C38.3341 20.2749 38.5768 20.5827 38.7439 20.9316C38.911 21.2806 38.9985 21.6619 39 22.0484L38.9956 65.7394Z" fill="#F07818"/>
</svg>
